<svg xmlns="http://www.w3.org/2000/svg" width="538" height="203" viewBox="0 0 538 203">
  <defs>
    <style>
      .cls-1 {
        fill: #f5f5f5;
      }

      .cls-2 {
        fill: #1f1f1f;
        font-size: 19px;
      }

      .cls-2, .cls-4 {
        font-family: Montserrat-Medium, Montserrat;
        font-weight: 500;
      }

      .cls-3 {
        fill: #e6e6e6;
      }

      .cls-4 {
        fill: #656565;
        font-size: 50px;
      }
    </style>
  </defs>
  <g id="Countdown" transform="translate(-131 -634)">
    <rect id="Rectangle_15" data-name="Rectangle 15" class="cls-1" width="538" height="203" transform="translate(131 634)"/>
    <text id="Days" class="cls-2" transform="translate(173 768)"><tspan x="21.063" y="18">Days</tspan></text>
    <text id="Hours" class="cls-2" transform="translate(294 768)"><tspan x="15.696" y="18">Hours</tspan></text>
    <text id="Minutes" class="cls-2" transform="translate(415 768)"><tspan x="5.541" y="18">Minutes</tspan></text>
    <text id="Seconds" class="cls-2" transform="translate(548 770)"><tspan x="3.669" y="18">Seconds</tspan></text>
    <rect id="Rectangle_92" data-name="Rectangle 92" class="cls-3" width="42" height="61" transform="translate(173 694)"/>
    <rect id="Rectangle_91" data-name="Rectangle 91" class="cls-3" width="42" height="61" transform="translate(220 694)"/>
    <rect id="Rectangle_93" data-name="Rectangle 93" class="cls-3" width="42" height="61" transform="translate(341 694)"/>
    <rect id="Rectangle_94" data-name="Rectangle 94" class="cls-3" width="42" height="61" transform="translate(294 694)"/>
    <rect id="Rectangle_95" data-name="Rectangle 95" class="cls-3" width="42" height="61" transform="translate(462 695)"/>
    <rect id="Rectangle_96" data-name="Rectangle 96" class="cls-3" width="42" height="61" transform="translate(415 695)"/>
    <rect id="Rectangle_97" data-name="Rectangle 97" class="cls-3" width="42" height="61" transform="translate(584 696)"/>
    <rect id="Rectangle_98" data-name="Rectangle 98" class="cls-3" width="42" height="61" transform="translate(537 696)"/>
    <text id="_0" data-name="0" class="cls-4" transform="translate(294 692)"><tspan x="3.825" y="48">0</tspan></text>
    <text id="_2" data-name="2" class="cls-4" transform="translate(415 693)"><tspan x="6.15" y="48">2</tspan></text>
    <text id="_6" data-name="6" class="cls-4" transform="translate(467 694)"><tspan x="1.575" y="48">6</tspan></text>
    <text id="_2-2" data-name="2" class="cls-4" transform="translate(225 693)"><tspan x="2.65" y="48">2</tspan></text>
    <text id="_7" data-name="7" class="cls-4" transform="translate(346 693)"><tspan x="2.05" y="48">7</tspan></text>
    <text id="_1_" data-name="1  " class="cls-4" transform="translate(173 692)"><tspan x="11.25" y="48" xml:space="preserve">1  </tspan></text>
    <text id="_9" data-name="9" class="cls-4" transform="translate(584 695)"><tspan x="5.575" y="48">9</tspan></text>
    <text id="_0-2" data-name="0" class="cls-4" transform="translate(538 696)"><tspan x="3.825" y="48">0</tspan></text>
  </g>
</svg>
